<svg width="281" height="70" fill="none" xmlns="http://www.w3.org/2000/svg"><path d="M81.29 41.224l-2.976-4.652c-.53-.825-.964-1.37-1.3-1.635-.335-.265-.852-.398-1.55-.398h-1.698v6.685h-1.635V34.54h-1.697c-.698 0-1.216.133-1.551.398-.321.265-.755.81-1.3 1.635l-2.975 4.652h-1.866l3.374-5.218c.49-.755.88-1.293 1.174-1.614a2.44 2.44 0 011.027-.692c-.293-.14-.58-.363-.86-.67-.278-.322-.649-.825-1.11-1.51l-3.228-4.966h1.866l2.829 4.4c.545.84.978 1.391 1.3 1.657.335.251.852.377 1.55.377h1.467v-6.434h1.635v6.434h1.467c.713 0 1.23-.133 1.551-.398.335-.266.769-.81 1.3-1.635l2.829-4.401h1.865l-3.207 4.967c-.838 1.23-1.494 1.956-1.97 2.18.364.125.692.349.986.67.307.321.712.866 1.215 1.635l3.353 5.218H81.29zm14.867 0l-2.976-4.652c-.545-.825-.985-1.37-1.32-1.635-.321-.265-.831-.398-1.53-.398h-2.39v6.685h-1.634v-14.67h1.635v6.434H90.1c.698 0 1.208-.126 1.53-.377.335-.266.775-.818 1.32-1.656l2.83-4.401h1.864l-3.227 4.967c-.461.684-.831 1.187-1.11 1.509-.28.307-.567.53-.86.67.377.126.712.357 1.006.692.307.321.706.86 1.194 1.614l3.375 5.218h-1.866zm11.668-14.67h5.658c1.006 0 1.859.133 2.557.398.699.251 1.209.594 1.53 1.027.336.433.566.845.692 1.236.126.392.188.804.188 1.237 0 1.565-.643 2.606-1.928 3.123a3.014 3.014 0 011.824 1.215c.446.615.67 1.355.67 2.222 0 2.808-1.809 4.212-5.428 4.212h-5.763v-14.67zm2.892 2.724v3.144h3.081c.698 0 1.194-.154 1.488-.461a1.6 1.6 0 00.44-1.11c0-1.049-.643-1.573-1.928-1.573h-3.081zm0 5.638v3.563h3.479c.74 0 1.271-.16 1.593-.482.335-.336.503-.769.503-1.3a1.67 1.67 0 00-.524-1.257c-.336-.35-.859-.524-1.572-.524h-3.479zm12.604-6.308c1.453-1.467 3.213-2.2 5.281-2.2 2.068 0 3.828.733 5.282 2.2 1.467 1.453 2.2 3.213 2.2 5.281 0 2.068-.733 3.836-2.2 5.303-1.454 1.453-3.214 2.18-5.282 2.18s-3.828-.727-5.281-2.18c-1.454-1.467-2.18-3.235-2.18-5.303s.726-3.828 2.18-5.281zm8.551 1.865c-.881-.894-1.97-1.341-3.27-1.341-1.299 0-2.389.447-3.269 1.341-.867.894-1.3 2.033-1.3 3.416 0 1.397.433 2.543 1.3 3.437.88.88 1.97 1.32 3.269 1.32 1.313 0 2.403-.44 3.27-1.32.88-.894 1.32-2.04 1.32-3.437 0-1.383-.44-2.522-1.32-3.416zm10.565 1.844h1.844c.699 0 1.195-.153 1.488-.46a1.6 1.6 0 00.44-1.111c0-1.076-.684-1.614-2.054-1.614h-.105c-.586 0-1.25.133-1.991.398a6.47 6.47 0 00-1.886 1.048l-1.886-1.74a9.175 9.175 0 012.662-1.76c.992-.447 1.991-.67 2.997-.67h.146c.755.013 1.425.111 2.012.293.601.181 1.069.412 1.404.691.35.266.636.58.86.943.223.364.37.706.44 1.027.084.322.126.65.126.985 0 .797-.182 1.495-.545 2.096-.364.6-.846 1.02-1.446 1.258.754.181 1.348.58 1.781 1.194.447.615.671 1.355.671 2.222 0 1.271-.44 2.298-1.321 3.08-.866.77-2.235 1.16-4.107 1.174h-.147a7.285 7.285 0 01-3.186-.733 8.547 8.547 0 01-2.641-1.95l1.887-1.739a6.218 6.218 0 001.886 1.237c.754.307 1.474.46 2.159.46h.104c1.747-.027 2.62-.642 2.62-1.844a1.67 1.67 0 00-.524-1.257c-.335-.35-.859-.524-1.572-.524h-2.116v-2.704zm10.032-5.763h4.82c2.012 0 3.605.53 4.779 1.593 1.173 1.047 1.76 2.396 1.76 4.044 0 1.663-.587 3.025-1.76 4.087-1.174 1.048-2.767 1.572-4.779 1.572h-1.928v3.374h-2.892v-14.67zm2.892 8.572h2.159c1.02 0 1.865-.245 2.536-.734.684-.489 1.027-1.223 1.027-2.2 0-.937-.343-1.656-1.027-2.16-.685-.502-1.53-.754-2.536-.754h-2.159v5.848zm12.87-6.518c1.453-1.467 3.213-2.2 5.281-2.2 2.068 0 3.829.733 5.282 2.2 1.467 1.453 2.2 3.213 2.2 5.281 0 2.068-.733 3.836-2.2 5.303-1.453 1.453-3.214 2.18-5.282 2.18s-3.828-.727-5.281-2.18c-1.453-1.467-2.18-3.235-2.18-5.303s.727-3.828 2.18-5.281zm8.551 1.865c-.88-.894-1.97-1.341-3.27-1.341-1.299 0-2.389.447-3.269 1.341-.866.894-1.299 2.033-1.299 3.416 0 1.397.433 2.543 1.299 3.437.88.88 1.97 1.32 3.269 1.32 1.314 0 2.403-.44 3.27-1.32.88-.894 1.32-2.04 1.32-3.437 0-1.383-.44-2.522-1.32-3.416zm23.096 10.751l-3.018-4.715c-.349-.517-.65-.867-.901-1.048-.252-.182-.615-.273-1.09-.273h-.797v6.036h-2.892v-6.036h-.796c-.489 0-.86.091-1.111.273-.252.181-.545.53-.88 1.048l-3.018 4.715h-3.27l3.584-5.595c.671-1.034 1.265-1.67 1.782-1.908-.447-.237-1.013-.824-1.698-1.76l-3.437-5.407h3.269l2.871 4.527c.35.517.65.866.902 1.048.251.181.615.272 1.09.272h.712v-5.847h2.892V32.4h.692c.475 0 .838-.09 1.09-.272.266-.182.566-.531.901-1.048l2.892-4.527h3.27l-3.458 5.407c-.643.908-1.202 1.495-1.677 1.76.517.252 1.111.888 1.781 1.908l3.584 5.595h-3.269zm20.054 2.704h-2.892v-2.704h-9.557v2.704h-2.892V38.5h1.949l4.904-11.946h1.719l4.841 11.946h1.928v5.428zm-7.671-12.072l-2.619 6.644h5.26l-2.641-6.644zm13.343.629h6.35v2.724h-6.35v3.29h6.874v2.725h-9.766v-14.67h9.766v2.724h-6.874v3.207zm21.456 8.739h-2.892V35.21h-5.68v6.015h-2.892v-14.67h2.892v5.93h5.68v-5.93h2.892v14.67zm15.347 0h-2.892v-9.242l-6.958 9.242h-1.698v-14.67h2.893v9.242l6.937-9.242h1.718v14.67zm6.879-8.739h6.351v2.724h-6.351v3.29h6.875v2.725h-9.767v-14.67h9.767v2.724h-6.875v3.207zm-240.621 4.76V11.736l-5.03-3.772-8.384 6.287v27.097c3.209-1.178 6.814-2.21 10.388-3.232 1.014-.29 2.026-.58 3.026-.871z" fill="#002040"/><path d="M28.245 37.367V11.422l-.838-.629V37.61l.838-.243zm-1.257.363V10.479l-.838-.629v28.12l.838-.24zm-1.258.36V9.536l-.838-.629V38.33l.747-.213c.03-.01.06-.018.091-.027zm-1.257.36V8.593l-.838-.63v30.728l.838-.24z" fill="#fff"/><path d="M36.21 34.8v-7.554l-3.773-2.096-6.707 2.934V38.09c3.688-1.054 7.338-2.1 10.48-3.29z" fill="#002040"/><path d="M35.79 34.956v-7.943l-.838-.466v8.712c.283-.1.562-.201.838-.303zm-1.257.45v-9.092l-.839-.466v9.843c.283-.095.562-.19.839-.285zm-1.258.424V25.616l-.838-.466V36.1c.282-.09.561-.18.838-.271z" fill="#fff"/><path d="M20.7 39.555V24.73l-5.03-2.934-8.383 4.611v19.025c3.056-2.46 8.04-4.255 13.413-5.877z" fill="#002040"/><path d="M20.281 39.682V24.486l-.838-.489V39.94l.838-.258zM16.509 40.9c-.282.098-.562.197-.838.296v-19.4l.838.49V40.9zm1.257-.424a88.46 88.46 0 00-.838.28V22.53l.838.489v17.457zm1.258-.404c-.281.088-.56.178-.839.268V23.264l.839.489v16.319zm1.233 6.616l.024-.009v.023l-.024-.014z" fill="#fff"/><path d="M51.09 29.55C50.01 45.06 4.772 43.803 7.287 58.055c-16.137-20.33 35.968-17.815 38.144-30.6 1.677-9.85-22.006-23.263-22.006-23.263s28.554 12.575 27.665 25.36z" fill="url(#paint0_linear_1_609)"/><path d="M55.49 33.114c-1.632 17.14-48.412 17.814-40.658 32.695-20.12-18.653 35.079-17.815 38.144-34.162 1.414-7.545-5.45-13.204-5.45-13.204s8.803 5.869 7.965 14.671z" fill="url(#paint1_linear_1_609)"/><defs><linearGradient id="paint0_linear_1_609" x1="27.651" y1="4.191" x2="27.651" y2="58.054" gradientUnits="userSpaceOnUse"><stop stop-color="#409FFF"/><stop offset="1" stop-color="#007FFF"/></linearGradient><linearGradient id="paint1_linear_1_609" x1="32.989" y1="18.443" x2="32.989" y2="65.809" gradientUnits="userSpaceOnUse"><stop stop-color="#409FFF"/><stop offset="1" stop-color="#007FFF"/></linearGradient></defs></svg>